<svg width="20" height="20" viewBox="0 0 20 20" fill="none" xmlns="http://www.w3.org/2000/svg">
<path d="M17.5001 9.16666H14.8584L16.9751 7.04999C17.0523 6.9729 17.1136 6.88132 17.1554 6.78051C17.1973 6.6797 17.2188 6.57163 17.2188 6.46249C17.2188 6.35335 17.1973 6.24528 17.1554 6.14447C17.1136 6.04366 17.0523 5.95209 16.9751 5.87499C16.6501 5.54999 16.1168 5.54999 15.7918 5.87499L12.5001 9.16666H10.8334V7.49999L14.1251 4.20832C14.4501 3.88332 14.4501 3.34999 14.1251 3.02499C14.048 2.94774 13.9564 2.88645 13.8556 2.84463C13.7548 2.80281 13.6467 2.78129 13.5376 2.78129C13.4284 2.78129 13.3204 2.80281 13.2196 2.84463C13.1188 2.88645 13.0272 2.94774 12.9501 3.02499L10.8334 5.14166V2.49999C10.8334 2.04166 10.4584 1.66666 10.0001 1.66666C9.54175 1.66666 9.16675 2.04166 9.16675 2.49999V5.14166L7.05008 3.02499C6.97299 2.94774 6.88141 2.88645 6.7806 2.84463C6.67979 2.80281 6.57172 2.78129 6.46258 2.78129C6.35344 2.78129 6.24537 2.80281 6.14456 2.84463C6.04375 2.88645 5.95218 2.94774 5.87508 3.02499C5.55008 3.34999 5.55008 3.88332 5.87508 4.20832L9.16675 7.49999V9.16666H7.50008L4.20842 5.87499C3.88342 5.54999 3.35008 5.54999 3.02508 5.87499C2.94783 5.95209 2.88654 6.04366 2.84472 6.14447C2.8029 6.24528 2.78138 6.35335 2.78138 6.46249C2.78138 6.57163 2.8029 6.6797 2.84472 6.78051C2.88654 6.88132 2.94783 6.9729 3.02508 7.04999L5.14175 9.16666H2.50008C2.04175 9.16666 1.66675 9.54166 1.66675 9.99999C1.66675 10.4583 2.04175 10.8333 2.50008 10.8333H5.14175L3.02508 12.95C2.94783 13.0271 2.88654 13.1187 2.84472 13.2195C2.8029 13.3203 2.78138 13.4284 2.78138 13.5375C2.78138 13.6466 2.8029 13.7547 2.84472 13.8555C2.88654 13.9563 2.94783 14.0479 3.02508 14.125C3.35008 14.45 3.88342 14.45 4.20842 14.125L7.50008 10.8333H9.16675V12.5L5.87508 15.7917C5.55008 16.1167 5.55008 16.65 5.87508 16.975C6.20008 17.3 6.72508 17.3 7.05008 16.975L9.16675 14.8583V17.5C9.16675 17.9583 9.54175 18.3333 10.0001 18.3333C10.4584 18.3333 10.8334 17.9583 10.8334 17.5V14.8583L12.9501 16.975C13.2751 17.3 13.8001 17.3 14.1251 16.975C14.4501 16.65 14.4501 16.1167 14.1251 15.7917L10.8334 12.5V10.8333H12.5001L15.7918 14.125C16.1168 14.45 16.6501 14.45 16.9751 14.125C17.0523 14.0479 17.1136 13.9563 17.1554 13.8555C17.1973 13.7547 17.2188 13.6466 17.2188 13.5375C17.2188 13.4284 17.1973 13.3203 17.1554 13.2195C17.1136 13.1187 17.0523 13.0271 16.9751 12.95L14.8584 10.8333H17.5001C17.9584 10.8333 18.3334 10.4583 18.3334 9.99999C18.3334 9.54166 17.9584 9.16666 17.5001 9.16666Z" fill="#3067da"/>
</svg>
