<svg width="20" height="20" viewBox="0 0 20 20" fill="none" xmlns="http://www.w3.org/2000/svg">
<path d="M17.2727 5.45454H16.3636V2.72727C16.3636 2.48616 16.2678 2.25493 16.0973 2.08444C15.9268 1.91396 15.6956 1.81818 15.4545 1.81818C15.2134 1.81818 14.9821 1.91396 14.8117 2.08444C14.6412 2.25493 14.5454 2.48616 14.5454 2.72727V5.45454C14.5454 5.93675 14.7369 6.39921 15.0779 6.74019C15.4189 7.08116 15.8814 7.27272 16.3636 7.27272V15C16.3636 15.1205 16.3157 15.2362 16.2304 15.3214C16.1452 15.4067 16.0296 15.4545 15.909 15.4545C15.7885 15.4545 15.6729 15.4067 15.5876 15.3214C15.5024 15.2362 15.4545 15.1205 15.4545 15V11.8182C15.4545 11.0949 15.1671 10.4012 14.6557 9.8897C14.1442 9.37824 13.4505 9.0909 12.7272 9.0909V3.63636C12.7272 3.15415 12.5356 2.69168 12.1947 2.35071C11.8537 2.00973 11.3912 1.81818 10.909 1.81818H3.6363C3.15409 1.81818 2.69162 2.00973 2.35065 2.35071C2.00967 2.69168 1.81812 3.15415 1.81812 3.63636V16.3636C1.81812 16.8458 2.00967 17.3083 2.35065 17.6493C2.69162 17.9903 3.15409 18.1818 3.6363 18.1818H10.909C11.3912 18.1818 11.8537 17.9903 12.1947 17.6493C12.5356 17.3083 12.7272 16.8458 12.7272 16.3636V10.9091C12.9683 10.9091 13.1995 11.0049 13.37 11.1754C13.5405 11.3458 13.6363 11.5771 13.6363 11.8182V15C13.6363 15.6028 13.8757 16.1808 14.302 16.6071C14.7282 17.0333 15.3063 17.2727 15.909 17.2727C16.5118 17.2727 17.0899 17.0333 17.5161 16.6071C17.9423 16.1808 18.1817 15.6028 18.1817 15V6.36363C18.1817 6.12253 18.086 5.89129 17.9155 5.72081C17.745 5.55032 17.5138 5.45454 17.2727 5.45454ZM10.909 8.18181C10.9114 8.29882 10.8908 8.41515 10.8482 8.52416C10.8057 8.63318 10.742 8.73274 10.661 8.81716C10.5799 8.90158 10.4831 8.96921 10.3759 9.01618C10.2687 9.06315 10.1533 9.08854 10.0363 9.0909H4.58175C4.45997 9.09332 4.33891 9.07171 4.22549 9.02733C4.11206 8.98294 4.00849 8.91664 3.92069 8.83222C3.8329 8.7478 3.76259 8.64691 3.71379 8.53531C3.66499 8.42371 3.63866 8.30359 3.6363 8.18181V5.45454C3.6363 5.21343 3.73208 4.9822 3.90256 4.81172C4.07305 4.64123 4.30428 4.54545 4.54539 4.54545H9.99993C10.241 4.54545 10.4723 4.64123 10.6428 4.81172C10.8132 4.9822 10.909 5.21343 10.909 5.45454V8.18181Z" fill="#3067da"/>
</svg>
