<svg width="20" height="20" viewBox="0 0 20 20" fill="none" xmlns="http://www.w3.org/2000/svg">
<path d="M5.83325 15C5.83325 15 3.33325 8.33332 3.33325 4.99999C3.33325 1.66666 4.99992 1.66666 4.99992 1.66666H5.83325C5.83325 1.66666 6.66658 1.66666 6.66658 2.49999C6.66658 3.33332 5.83325 3.33332 5.83325 4.99999C5.83325 6.66666 8.33325 8.33332 8.33325 10.8333C8.33325 13.3333 5.83325 15 5.83325 15ZM9.99992 14.1667C9.16658 14.1667 6.66658 16.25 6.66658 16.25C6.41658 16.4167 6.49992 16.6667 6.66658 16.9167C6.66658 16.9167 7.49992 18.4167 9.16658 18.4167H14.1666C15.0833 18.4167 15.8333 17.6667 15.8333 16.75V15.9167C15.8333 15 15.0833 14.25 14.1666 14.25H9.99992V14.1667Z"
fill="#3067da" />
</svg>
